# xmcd
#
# Track frame offsets: 
#        150
#        16128
#        34304
#        50419
#        66774
#        83697
#        101984
#        117814
#        139304
#
# Disc length: 2164 seconds
#
# Revision: 3
# Processed by: cddbd v1.5.2PL0 Copyright (c) Steve Scherf et al.
# Submitted via: ExactAudioCopy v1.0b3
#
DISCID=76087209
DTITLE=Arthur Louis feat. Eric Clapton - Knockin' On Heaven's Door
DYEAR=1976
DGENRE=Reggae
TTITLE0=Come And Love Me
TTITLE1=The Dealer
TTITLE2=Knockin' On Heaven's Door
TTITLE3=Got Out And Make It Happen
TTITLE4=It Feels Good
TTITLE5=Been On The Road Too Long
TTITLE6=Train 444
TTITLE7=Someone Like You
TTITLE8=Plum (Instrumental)
EXTD=
EXTT0=
EXTT1=
EXTT2=
EXTT3=
EXTT4=
EXTT5=
EXTT6=
EXTT7=
EXTT8=
PLAYORDER=
